<?xml version="1.0" encoding="UTF-8"?>
<svg width="80px" height="80px" viewBox="0 0 80 80" version="1.1" xmlns="http://www.w3.org/2000/svg" xmlns:xlink="http://www.w3.org/1999/xlink">
    <!-- Generator: Sketch 52.6 (67491) - http://www.bohemiancoding.com/sketch -->
    <title>airbnb</title>
    <desc>Created with Sketch.</desc>
    <g id="Homepage" stroke="none" stroke-width="1" fill="none" fill-rule="evenodd">
        <g id="Artboard-Copy-7" transform="translate(-544.000000, -1414.000000)">
            <g id="airbnb" transform="translate(544.000000, 1414.000000)">
                <rect id="Rectangle" fill="#FFFFFF" x="0" y="0" width="80" height="80"></rect>
                <path d="M63.335561,51.5352399 C63.0825318,50.9347199 62.8295027,50.2847454 62.5764736,49.73368 C62.1719129,48.8336065 61.7659226,47.9815746 61.4113959,47.1818233 L61.3613619,47.1309557 C57.8675586,39.6237495 54.1192965,32.0162211 50.1708984,24.5090149 L50.0179373,24.2080484 C49.6133766,23.4577517 49.2088159,22.6565874 48.8028257,21.856836 C48.2967674,20.9553496 47.7907091,20.0044085 46.9801582,19.1029221 C45.3604858,17.1021308 43.0303306,16 40.5500733,16 C38.0183524,16 35.7396607,17.1021308 34.0685248,19.0040129 C33.3080078,19.9040864 32.7519156,20.8550274 32.2458573,21.7565139 C31.8398671,22.5562652 31.4353064,23.3574295 31.0307457,24.1091392 L30.8777846,24.4086927 C26.9794205,31.9158989 23.1811244,39.5234273 19.687321,47.0306336 L19.637287,47.1309557 C19.2827603,47.93212 18.8767701,48.7827389 18.4722094,49.6842254 C18.2191803,50.2338778 17.9661511,50.8343978 17.713122,51.4857853 C17.0541026,53.3367999 16.852537,55.0889052 17.1055662,56.8904652 C17.6616585,60.6447748 20.1933793,63.7971514 23.6871827,65.1988357 C25.0037919,65.7499011 26.3718647,66 27.7885419,66 C28.1945321,66 28.7005904,65.9491324 29.1051511,65.8996778 C30.776287,65.6990335 32.4988864,65.1493811 34.1700223,64.1984401 C36.2457189,63.0468547 38.219918,61.3950715 40.4485757,58.9929916 C42.6758039,61.3950715 44.7014665,63.0468547 46.7271291,64.1984401 C48.398265,65.1493811 50.1194349,65.6990335 51.7905708,65.8996778 C52.1951315,65.9491324 52.7026193,66 53.10718,66 C54.5252868,66 55.9433935,65.7499011 57.2085392,65.1988357 C60.7538061,63.7971514 63.2340634,60.5939072 63.7915852,56.8904652 C64.1961459,55.1383598 63.9945804,53.3876674 63.335561,51.5352399 Z M40.4986097,54.1379642 C37.7638937,50.7340756 35.9926898,47.5322444 35.385134,44.829198 C35.1321049,43.6776126 35.0806413,42.677217 35.2321729,41.7757305 C35.3336704,40.9759792 35.6381631,40.2737241 36.0427238,39.6746171 C37.0048063,38.3223874 38.6259082,37.4717685 40.4986097,37.4717685 C42.3727407,37.4717685 44.0438766,38.2729328 44.9544956,39.6746171 C45.3604858,40.2737241 45.663549,40.9759792 45.7650466,41.7757305 C45.9165781,42.677217 45.8665441,43.7270672 45.613515,44.829198 C45.0059592,47.4813768 43.2333257,50.684621 40.4986097,54.1379642 Z M60.7023426,56.4905895 C60.3478159,59.0933137 58.5766119,61.3456169 56.0949251,62.3460125 C54.8798135,62.8462104 53.5632042,62.9974001 52.246595,62.8462104 C50.9800198,62.6964336 49.7148742,62.296558 48.398265,61.5448482 C46.5755975,60.5444526 44.75293,58.9929916 42.6257699,56.6912338 C45.9680417,52.6359577 47.9937043,48.9325157 48.7527917,45.6303623 C49.1073184,44.0789013 49.1573524,42.677217 49.0058208,41.3758549 C48.8028257,40.1239473 48.3468014,38.9737749 47.6391776,37.9719663 C46.0695392,35.7196631 43.4363208,34.418301 40.4986097,34.418301 C37.5623282,34.418301 34.9291097,35.7705307 33.3594714,37.9719663 C32.650418,38.9737749 32.1943938,40.1239473 31.9928282,41.3758549 C31.7898331,42.677217 31.8398671,44.1283558 32.2458573,45.6303623 C33.0049447,48.9325157 35.0806413,52.6868253 38.3728791,56.7406884 C36.295753,59.0424462 34.4230515,60.5939072 32.600384,61.5957158 C31.2837748,62.3460125 30.0171996,62.7473012 28.7520539,62.8970779 C27.3839812,63.0468547 26.067372,62.8462104 24.9037239,62.3968801 C22.422037,61.3950715 20.6494036,59.1427683 20.2948769,56.5400441 C20.1433453,55.2895495 20.2448429,54.037642 20.7509011,52.6359577 C20.9038622,52.1357599 21.1554618,51.6355621 21.4099205,51.0350421 C21.7644472,50.2338778 22.1690079,49.3832589 22.5735686,48.53264 L22.6250321,48.4323179 C26.1188355,40.9759792 29.865668,33.3670378 33.7640321,25.9601537 L33.9169932,25.6606002 C34.3215539,24.9088905 34.7261146,24.1091392 35.1321049,23.3574295 C35.5366656,22.5562652 35.9926898,21.8059685 36.5487821,21.1559939 C37.6123622,19.9549539 39.0304689,19.3035664 40.6001073,19.3035664 C42.1697456,19.3035664 43.5878524,19.9549539 44.6514325,21.1559939 C45.2075247,21.8059685 45.663549,22.5562652 46.0695392,23.3574295 C46.4740999,24.1091392 46.8786606,24.9088905 47.2846509,25.6606002 L47.4361825,25.9601537 C51.2845125,33.4179054 55.031345,41.0254338 58.5251484,48.4831854 L58.5251484,48.53264 C58.9297091,49.3338043 59.2842358,50.2338778 59.690226,51.0350421 C59.9432552,51.6355621 60.1962843,52.1357599 60.3478159,52.6359577 C60.7538061,53.9373198 60.9053377,55.1892274 60.7023426,56.4905895 Z" fill="#000000"></path>
            </g>
        </g>
    </g>
</svg>