<?xml version="1.0" encoding="UTF-8"?>
<svg width="80px" height="80px" viewBox="0 0 80 80" version="1.1" xmlns="http://www.w3.org/2000/svg" xmlns:xlink="http://www.w3.org/1999/xlink">
    <!-- Generator: Sketch 52.6 (67491) - http://www.bohemiancoding.com/sketch -->
    <title>disney</title>
    <desc>Created with Sketch.</desc>
    <g id="Homepage" stroke="none" stroke-width="1" fill="none" fill-rule="evenodd">
        <g id="Artboard-Copy-7" transform="translate(-183.000000, -1414.000000)">
            <g id="disney" transform="translate(183.000000, 1414.000000)">
                <rect id="Rectangle" fill="#FFFFFF" x="0" y="0" width="80" height="80"></rect>
                <path d="M32.8931934,48.0432777 C32.884294,48.1761042 32.8903226,48.3092164 32.884294,48.4420429 C32.8251558,49.7320312 32.7806586,51.0220195 32.7005637,52.3120078 C32.6351098,53.37462 32.5314744,54.4372321 32.4364514,55.4998443 C32.4068824,55.8454789 32.3534857,56.1936843 32.3087015,56.568455 C29.7872906,55.5795402 27.416883,54.3901001 25.2333636,52.8461704 C23.5186434,51.6387345 21.9580844,50.2633373 20.6171405,48.6545653 C19.9614531,47.8721743 20.1750396,47.1431995 21.0293853,46.7858533 C22.1745417,46.3048214 23.381994,45.9534738 24.5923172,45.6701105 C25.8353673,45.3778922 27.1140152,45.2125018 28.3837636,45.0413984 C29.1672009,44.931995 29.9621214,44.9085718 30.7541712,44.8522991 C31.5109102,44.796312 32.2673622,44.7431814 33.0711821,44.6840522 C33.0120439,45.8235038 32.9497479,46.9335335 32.8931934,48.0432777 Z M70.9738757,46.8981131 C70.9265078,46.148286 70.8225853,45.3924603 70.6503382,44.660629 C70.1757974,42.6296687 69.3570494,40.7375335 68.2919879,38.9425188 C67.1172625,36.9678312 65.7407209,35.1465368 64.1503057,33.4874907 C63.3226583,32.6254038 62.4594131,31.7930243 61.6050673,30.9546461 C61.3558831,30.7127019 61.0946417,30.4796128 60.821917,30.2670904 C59.6500624,29.3490163 58.5138055,28.3806681 57.2796548,27.5571437 C55.1673309,26.143184 53.0489783,24.717227 50.8269903,23.4892245 C48.7324652,22.3320627 46.5371756,21.3314362 44.3151876,20.4342145 C42.0722429,19.527852 39.7581027,18.7808814 37.4442496,18.0667603 C35.9488575,17.6062951 34.4032266,17.2932244 32.869653,16.9772972 C31.6355023,16.7236414 30.3924522,16.5228306 29.1433734,16.3694374 C27.7697026,16.1980483 26.3842615,16.0535102 24.9988204,16.0149477 C23.4887873,15.9706722 21.9758833,16.0326579 20.4658502,16.0977857 C20.0504475,16.1154959 19.6350448,16.1360626 19.2196422,16.171483 C18.7123744,16.2157585 18.2079774,16.2777442 17.7127669,16.3751503 C16.1760354,16.6762238 14.6482034,17.0392829 13.1381702,17.4554727 C12.6722417,17.5854427 11.233404,18.040195 10.5185785,19.3447514 C10.3641302,19.6252582 10.1327449,20.1359976 10.0288225,20.7321458 C9.84193432,21.8156103 10.5837453,22.8576558 11.6783758,22.9993374 C11.6872752,22.9993374 11.6933039,22.9993374 11.6993325,23.0021939 C12.6010462,23.1084551 13.5148173,23.1498741 14.4257175,23.1764394 C14.7371977,23.1852945 15.0811178,23.1293074 15.3570003,22.9904823 C15.5883856,22.875366 15.8140294,22.624281 15.8941243,22.3823368 C15.9325928,22.264364 15.6687676,21.966147 15.4815924,21.8715974 C14.9596836,21.6179416 14.3751917,21.4879716 13.8323261,21.2811621 C13.6661077,21.2191764 13.4941476,21.1868981 13.3190297,21.1483356 C13.2418056,21.1306254 13.188409,21.0657832 13.1826674,20.9860873 L13.1826674,20.9772322 C13.1826674,20.9152465 13.2151073,20.8561172 13.2716617,20.823839 C13.4229521,20.7381444 13.5710847,20.6524499 13.7312745,20.6258846 C14.9654252,20.4222173 16.1967051,20.1477091 17.4368844,20.0120261 C17.742336,19.9766057 18.0477875,19.9500404 18.3535262,19.9351867 C20.6378102,19.8289255 22.9341515,19.8140718 25.2124069,20.1654193 C26.5120115,20.3662302 27.8351565,20.437071 29.1106465,20.7264329 C31.4753125,21.2634519 33.8368206,21.836177 36.1595731,22.5328735 C37.9782157,23.0790333 39.7612606,23.7491645 41.4909089,24.5312699 C43.9414113,25.6412997 46.3830144,26.7924629 48.7146664,28.1267267 C50.752924,29.2927436 52.6780728,30.6712829 54.5799682,32.0586773 C55.9476104,33.0564473 57.2319998,34.1781886 58.4810786,35.3264953 C59.3207833,36.0968891 60.0356089,37.0061081 60.7920609,37.8650529 C62.1686025,39.429835 63.248592,41.1802886 64.0257136,43.1078441 C64.8447487,45.1356623 65.1679992,47.234607 64.7201566,49.3923952 C64.2424579,51.6890086 63.011178,53.5488655 61.1747366,54.9951035 C59.7358989,56.1257 58.1251012,56.9877869 56.377654,57.5308046 C54.8704917,58.000125 53.3280186,58.3751813 51.7792299,58.6911085 C50.5244095,58.9479064 49.2428909,59.1632854 47.9671138,59.2047044 C46.3919138,59.257835 44.8014987,59.183852 43.2323273,59.0364574 C41.6657397,58.8887772 40.1201088,58.5639949 38.5595498,58.3631841 C38.1768741,58.3131956 38.1384056,58.1626589 38.1444342,57.8584433 C38.1829027,55.8660455 38.209601,53.8733621 38.2362994,51.8838208 C38.2690263,49.5666408 38.2957246,47.2494607 38.3281645,44.931995 C38.3313224,44.8494426 38.3580207,44.7668902 38.3758195,44.6574869 C39.1738979,44.7226147 39.9481487,44.7846004 40.7252704,44.8522991 C41.7756908,44.9379936 42.8375943,44.9705575 43.8819861,45.1328059 C45.4749849,45.3778922 47.065113,45.6701105 48.6406001,46.0214581 C49.8124547,46.283969 50.9843094,46.6087513 51.9810461,47.3380117 C52.7435267,47.8958831 52.6246762,48.4183341 51.9959742,48.9230748 C51.761431,49.109032 51.4766491,49.2330034 51.2067952,49.3718285 C50.7408667,49.6080598 50.2545557,49.808585 49.8064261,50.074238 C49.2606898,50.3961638 49.2486325,50.7620794 49.7975266,51.0397297 C51.3135884,51.8069814 52.8264924,52.2645902 54.4849452,51.2993841 C57.2202296,49.7083224 57.9143855,46.3342431 55.6034032,43.9727876 C54.4048503,42.750498 52.9421851,41.962394 51.3460283,41.3808138 C49.6433655,40.7581002 47.8663492,40.4747369 46.0979454,40.1262459 C43.8136614,39.6806343 41.5176072,39.4326915 39.1916968,39.435548 C39.0639468,39.435548 38.9336131,39.4209799 38.8147626,39.4149813 C38.7702655,38.6977181 38.7228975,38.0098766 38.6841419,37.3248917 C38.6488312,36.6341938 38.6545728,35.9434959 38.5862481,35.2556545 C38.494383,34.287592 38.3726617,33.3192438 38.2302707,32.3568943 C38.0583107,31.1997325 37.3403272,30.3199353 36.6283724,29.4609905 C36.115076,28.8439899 35.4269487,28.805713 35.0233162,29.6972217 C34.9225517,29.9214558 34.8126006,30.1459754 34.759204,30.3822067 C34.4508816,31.6899052 34.1095452,32.9944615 33.8781599,34.3141573 C33.6617027,35.5598701 33.5666797,36.8261496 33.4182601,38.0835739 C33.3591219,38.5883147 33.3146247,39.0961976 33.2313719,39.5980819 C33.2135731,39.701201 33.0772108,39.8488812 32.9764462,39.8694479 C31.9914797,40.0614037 30.9976138,40.2147969 30.0126473,40.4096091 C27.1912393,40.9766212 24.4677251,41.8384225 21.9164581,43.1726863 C20.8809657,43.7128475 19.884229,44.3269916 19.175145,45.3039093 C18.3296987,46.4642132 18.1367819,47.6950723 18.7867277,48.987917 C19.507582,50.419587 20.5726434,51.6121692 21.6466042,52.7841847 C22.3140618,53.510303 23.0288874,54.1892893 23.7824686,54.8268566 C24.8980559,55.7686394 26.0136431,56.730989 27.226837,57.5368032 C28.787396,58.5699936 30.4458488,59.4583602 32.0506179,60.4207097 C32.1841094,60.5004056 32.3147301,60.6895049 32.3385577,60.8428981 C32.4809486,61.7166967 32.5550149,62.6022068 32.7183626,63.4700067 C32.8607535,64.2198338 33.1573057,64.9285276 33.7567257,65.4361248 C34.5783445,66.1299649 35.5394835,66.1091125 36.4831107,65.7726187 C37.0555453,65.5689514 37.7023333,65.365284 37.8447242,64.6303106 C37.9337186,64.1727018 38.0405118,63.7122366 38.0433826,63.2546278 C38.0465404,62.8235843 38.180032,62.7615986 38.5595498,62.8710019 C40.9064169,63.5497026 43.315293,63.9070488 45.741968,64.0958624 C47.002817,64.1964107 48.2757233,64.1135726 49.5423138,64.1167147 C51.414353,64.1224277 53.2507945,63.8599168 55.0812073,63.4997141 C57.4160171,63.0392489 59.6647034,62.3188435 61.8097543,61.3005069 C63.3169167,60.5832437 64.7052286,59.6857363 65.9778478,58.5937024 C67.2269265,57.5219495 68.2830885,56.2999455 69.063368,54.8682756 C70.4100535,52.3885616 71.1518644,49.7437428 70.9738757,46.8981131 Z" fill="#000000"></path>
            </g>
        </g>
    </g>
</svg>