<?xml version="1.0" encoding="utf-8"?>
<!-- Generator: Adobe Illustrator 25.2.0, SVG Export Plug-In . SVG Version: 6.00 Build 0)  -->
<svg version="1.1" id="Livello_1" xmlns="http://www.w3.org/2000/svg" xmlns:xlink="http://www.w3.org/1999/xlink" x="0px" y="0px"
	 viewBox="0 0 85.1 80" style="enable-background:new 0 0 85.1 80;" xml:space="preserve">
<style type="text/css">
	.st0{fill-rule:evenodd;clip-rule:evenodd;fill:#FFFFFF;}
	.st1{fill-rule:evenodd;clip-rule:evenodd;}
</style>
<desc>Created with Sketch.</desc>
<g>
	<path class="st0" d="M72.8,53c-2.7-3.7-4.7-9.8-6.2-16.5c2.8-5.6,0-6.8-1.4-7.1c-2-11.9-2.5-23.1-2.5-23.1c0.1-3.1-4-0.4-4-0.4
		c-22.3,12.8-47,15.5-47,15.5c-4.9,1.1-1,4-1,4c2.4,2.4,4.2,5.5,5.7,8.8c-1.2,1.4-4.9,6.9,2.5,7.2c3.9,14.3,2.9,30.5,2.9,30.5
		c0.5,6.1,5.2,1.8,5.2,1.8c21.1-15,43-16,43-16C75.8,57.6,72.8,53,72.8,53z"/>
	<g>
		<path class="st1" d="M17.4,21.8c0,0,22.5-2.3,44.2-9.9c0,0,0.8-0.4,0.9,0.5c0,0.9,1.3,13.8,1.7,17.8c0,0,2.5-0.6,2.9,2.1
			c0,0,0.5,2.3-2.2,4.6c0,0,1.3,11,3.7,19c0,0,0.3,0.9-0.5,1c0,0-22.1,1.9-44.4,10c0,0-0.8,0.4-0.7-0.7c0,0,1.1-5.9-2.4-26.9
			c0,0-2.1,0.8-3.6,0.5c0,0-2.5-0.5-1.1-2.4c0,0,1-1.3,4.1-2.1c0,0-1.4-8.5-3.2-12.5C16.8,22.7,16.3,21.9,17.4,21.8z"/>
		<path class="st1" d="M14.5,22c0,0,2.2,4.3,4.3,13.4l-0.4,0.1c0,0-2.5-8.4-5-12.3C13.4,23.2,12.5,22.4,14.5,22z"/>
		<path class="st1" d="M39.1,16.6c0,0,9.4-2.6,22.1-8.2c0,0,0.8-0.4,0.9,0.4l0.1,0.9C62.3,9.7,56.4,12.3,39.1,16.6z"/>
		<path class="st1" d="M22.7,68.7c0,0,8-3.2,22.9-7.1c0,0-13.3,4.2-22.3,8.7c0,0-0.8,0.4-0.7-0.6V68.7z"/>
		<path class="st1" d="M65.5,37.8c0,0,1.8,10.5,4.9,19.2l0.7-0.2c0,0,0.8-0.2,0.3-1.1C71.4,55.7,67.8,47.9,65.5,37.8z"/>
	</g>
	<g>
		<path class="st1" d="M62,34.1c0.2-0.5,0.5-0.9,0.7-1.2l0.5-0.6c0.2-0.2,0.4-0.2,0.6-0.3c0.5,0,0.6,0.6,0.3,1.8
			c-0.2,0.8-0.6,1.5-1,2.1c-0.4,0.4-0.6,0.7-0.9,0.8c-0.2,0.1-0.4,0.1-0.5,0c-0.2-0.1-0.3-0.4-0.3-0.9C61.6,35.3,61.7,34.7,62,34.1
			L62,34.1z M61.4,37.8c2-0.2,3.6-1.3,4.8-3.2l0.2-0.4c0,0,0.5-1.1,0.3-2c-0.2-0.7-0.7-1-0.7-1c-0.4-0.3-1.1-0.3-1.9-0.2
			c-1.9,0.4-3.3,1.5-4.2,3.2c-0.2,0.3-0.4,0.6-0.5,1.1c-0.1,0.4-0.2,0.9-0.1,1.2C59.5,37.6,60.1,38,61.4,37.8L61.4,37.8z"/>
		<path class="st1" d="M57,33.1L57,33.1L57,33.1c-0.4-0.7-0.9-0.9-1.7-0.9c-0.2,0-0.5,0.1-0.8,0.3c-0.2,0.1-0.4,0.2-0.4,0.3
			c-0.1,0.1,0,0.2,0.1,0.2c0.4,0.1,0.6,0.1,0.7,0.2c0.4,0.2,0.5,0.5,0.5,1c0,1.1-0.2,2.3-0.6,3.7c-0.2,0.5-0.1,0.7,0.4,0.7l1.5-0.2
			c0.6-0.1,0.9-0.3,0.9-0.6l0-0.4c0-1.3-0.1-2.3-0.2-3.1l0-0.1c0.5-1,1.2-1.6,2-1.8c0.3-0.1,0.6,0,0.9,0.3c0.1,0.1,0.2,0.1,0.2,0.1
			c0.2-0.1,0.4-0.3,0.6-0.6c0.2-0.2,0.2-0.5,0.2-0.8c0-0.4-0.3-0.6-0.9-0.6C59.2,30.8,58.1,31.6,57,33.1L57,33.1L57,33.1z"/>
		<path class="st1" d="M48.5,28.3c-0.2-0.5-0.7-0.7-1.3-0.6c-1,0.1-1.7,0.4-2.1,0.6c-0.1,0.1-0.1,0.1,0.1,0.2
			c0.4,0.1,0.6,0.5,0.8,1.1c0.9,2.5,1.4,5.5,1.5,9.1c0,0.4,0.1,0.7,0.3,0.8c0.5,0.3,1.1,0.1,2.1-0.5c0.8-0.5,1.6-1.2,2.4-2.1
			c0.8-0.9,1.3-1.7,1.5-2.5c0.2-0.9-0.1-1.5-0.9-1.8c-0.6-0.2-1.3-0.2-2.1,0.1c-0.5,0.2-1,0.4-1.4,0.8l-0.1-0.1
			c-0.2-2-0.4-3.2-0.5-3.6L48.7,29C48.6,28.7,48.6,28.5,48.5,28.3L48.5,28.3z M49.8,38l-0.4-3.5c0.9-0.7,1.5-0.7,1.8-0.2
			c0.3,0.5,0.2,1.1-0.1,1.9C50.8,37,50.4,37.6,49.8,38L49.8,38z"/>
		<path class="st1" d="M52.7,39.6c-1.2,1.5-2.4,2.7-3.8,3.7c-1.8,1.3-3.9,2.2-6.3,2.9c-3.8,1-7.2,1-10.2,0l-0.1,0
			c-0.1,0-0.1,0.1,0,0.3c0.3,3.8,3,6.4,8.3,7.9c1.9,0.5,3.8,0.6,5.6,0.4c1.9-0.3,3.5-1,4.9-2.1c1.5-1.2,2.4-2.7,2.9-4.7
			c0.5-2.1,0.5-4.6-0.2-7.4l-0.1-0.3c0-0.1-0.1-0.1-0.2-0.1c-0.1,0-0.2,0.1-0.1,0.3c0.2,0.9,0.3,1.8,0.4,2.8c0,1.2-0.1,2.4-0.3,3.5
			c-0.6,2.9-2.2,4.8-4.7,5.8c-2.4,1-4.9,1.1-7.4,0.4c-1.4-0.4-2.6-1-3.7-1.8c-0.9-0.6-1.6-1.2-2-1.9c-0.3-0.4-0.4-0.7-0.5-0.9l0,0
			c0.9,0.1,2,0.1,3.2,0c2.3-0.2,4.4-0.6,6.3-1.4c2.1-0.9,4.1-2.1,5.8-3.7c1.4-1.4,2.3-2.6,2.8-3.6c0.1-0.1,0.1-0.3,0-0.3
			c-0.1,0-0.2,0-0.2,0.1L52.7,39.6L52.7,39.6z"/>
		<path class="st1" d="M17.4,39.2c0.7,0.1,1.8-0.1,3.1-0.5l2.6-0.7l0.6,4.1c0.1,0.7,0.3,1,0.4,1.1l0.3,0.2l0.8-0.1
			c1.1-0.1,1.6-0.3,1.6-0.6l0-0.3L26,37.3l2.9-0.7l0.6,3.9l0.3,1.4c0.2,0.5,0.4,0.7,0.8,0.6c0.8-0.1,1.3-0.2,1.6-0.4
			c0.1-0.1,0.1-0.2,0.1-0.3l-0.1-0.3c-0.5-1.4-0.8-3.1-1.1-5.2l3.3-0.5c-1.5,1.6-2.1,3-1.6,4.1c0.2,0.4,0.5,0.8,0.8,0.9
			c0.4,0.2,0.8,0.2,1.2,0.1c1-0.2,1.9-0.8,2.7-1.9c0.5,1.3,1.4,1.8,2.9,1.3c0.1,0,0.1,0,0.1-0.1c0-0.1,0-0.1-0.1-0.2
			c-0.5-0.2-0.8-0.8-0.8-1.6c0-0.5,0-1.2,0.2-2.1l0.2-1.2c0-0.4-0.2-0.5-0.6-0.4c-0.3,0.1-0.6,0.2-0.9,0.4c-0.3,0.2-0.5,0.3-0.6,0.4
			c-0.1,0.1-0.2,0.3-0.3,0.6c-0.5,1.5-1.1,2.6-1.9,3.4c-0.6,0.5-0.9,0.6-1,0.1c0-0.4,0.1-0.8,0.3-1.4c0.5-1.2,1.3-2.2,2.5-3.1
			c0.4-0.3,0.7-0.5,1.1-0.6c0.1,0,0.1-0.1,0.1-0.2c0-0.1-0.1-0.2-0.2-0.2l-1,0c-1.6,0.1-3.8,0.4-6.5,0.9l-0.1-2.2
			c0-1.7,0-2.9,0.1-3.6c0-0.2,0-0.4-0.2-0.5c-0.1-0.1-0.4-0.2-0.7-0.1c-0.7,0.1-1.4,0.3-2,0.6c-0.1,0.1-0.2,0.1-0.1,0.2l0.1,0.1
			l0.1,0.2c0.1,0.1,0.2,0.6,0.2,1.3l0.4,4.5l-2.9,0.8c-0.2-1.3-0.3-2.5-0.4-3.6L25.2,30c0-0.6-0.2-0.8-0.5-0.8
			c-0.3,0-0.8,0.1-1.4,0.3c-0.7,0.3-1.3,0.6-1.8,1c-0.1,0.1-0.2,0.2-0.1,0.3l0.1,0.1l0.1,0c0.2,0.1,0.4,0.2,0.5,0.6
			c0.3,1.5,0.5,2.8,0.7,4l-0.1,0c-2.5,0.7-4.3,1.3-5.5,2.1c0,0-0.7,0.4-0.6,1C16.6,39.3,17.4,39.2,17.4,39.2L17.4,39.2z M22.9,36.9
			c-1.9,0.5-3,0.8-3.6,0.8c-0.4,0.1-0.6,0.1-0.6-0.1c0-0.1,0.2-0.2,0.5-0.4c1-0.5,2.2-1,3.6-1.3l0,0L22.9,36.9L22.9,36.9z"/>
		<path class="st1" d="M46.3,33.4c-0.6,0.1-1.1,0.2-1.5,0.4c-1.4,0.6-2.1,1.1-2.2,1.8c0,0.2,0,0.4,0,0.6c0.1,0.2,0.3,0.4,0.5,0.5
			c0.3,0.1,1.1,0.3,2.4,0.6c0.8,0.2,1.2,0.5,1.3,0.9c0.4,0.9,0,2-1.2,3.2c-0.8,0.8-1.5,1.5-2.1,1.8c-0.5,0.3-1,0.5-1.7,0.7
			c-0.8,0.2-1.4-0.2-2.1-1.1l-0.2-0.3c-0.1-0.2-0.2-0.3-0.1-0.4c0-0.1,0.1-0.1,0.2-0.1l0.2,0c0.1,0.1,0.1,0.1,0.3,0.1
			c0.6,0.3,1.2,0.2,1.8-0.2c0.6-0.4,1.1-0.9,1.6-1.4l0.6-0.8l0.3-0.5c0.1-0.4,0.1-0.6,0-0.8c-0.2-0.3-0.7-0.5-1.4-0.6l0.1,0
			c-0.4-0.1-0.9-0.2-1.5-0.3c-0.5-0.1-0.7-0.3-0.9-0.6c-0.4-1.1,0.1-2.2,1.5-3.3c1-0.9,2-1.4,2.8-1.6c0.8-0.2,1.4,0.2,1.5,1.1V33.4
			L46.3,33.4L46.3,33.4z"/>
	</g>
	<g>
		<path class="st0" d="M61.7,33.5c0.2-0.5,0.5-0.9,0.7-1.2l0.6-0.5c0.2-0.2,0.4-0.3,0.6-0.3c0.5,0,0.6,0.6,0.3,1.8
			c-0.2,0.8-0.5,1.5-1,2.1c-0.4,0.4-0.6,0.7-0.9,0.8c-0.2,0.1-0.4,0.1-0.5,0.1c-0.2-0.1-0.3-0.4-0.3-0.9
			C61.2,34.7,61.3,34.1,61.7,33.5L61.7,33.5z M61,37.2c2-0.2,3.6-1.3,4.8-3.2l0.2-0.4c0,0,0.5-1.1,0.3-2c-0.2-0.7-0.7-1-0.7-1
			c-0.4-0.3-1.1-0.4-1.9-0.2c-1.9,0.4-3.3,1.5-4.2,3.2c-0.2,0.3-0.4,0.6-0.5,1.1c-0.1,0.4-0.2,0.9-0.1,1.2C59,37,59.7,37.4,61,37.2
			L61,37.2z"/>
		<path class="st0" d="M56.6,32.5L56.6,32.5L56.6,32.5c-0.4-0.7-0.9-0.9-1.7-0.9c-0.2,0-0.5,0.1-0.8,0.3c-0.2,0.1-0.4,0.2-0.4,0.3
			c-0.1,0.1,0,0.2,0.1,0.2c0.4,0.1,0.6,0.1,0.7,0.2c0.4,0.2,0.5,0.5,0.5,1c0,1.1-0.2,2.3-0.6,3.8c-0.2,0.5-0.1,0.7,0.4,0.7l1.5-0.2
			c0.6-0.1,0.9-0.3,0.9-0.6l0-0.4c0-1.3-0.1-2.3-0.2-3.2l0-0.1c0.5-1,1.2-1.6,2-1.8c0.3-0.1,0.6,0,0.9,0.3c0.1,0.1,0.2,0.1,0.2,0.1
			c0.2-0.1,0.4-0.3,0.6-0.6c0.2-0.2,0.2-0.5,0.2-0.8c0-0.4-0.3-0.6-0.9-0.6C58.8,30.2,57.7,31,56.6,32.5L56.6,32.5L56.6,32.5z"/>
		<path class="st0" d="M48.1,27.7c-0.2-0.5-0.6-0.7-1.3-0.6c-1,0.1-1.7,0.4-2.2,0.6c-0.1,0.1-0.1,0.1,0.1,0.2
			c0.4,0.1,0.6,0.5,0.8,1.1c0.9,2.5,1.4,5.5,1.5,9.1c0,0.4,0.1,0.7,0.3,0.8c0.5,0.3,1.1,0.1,2.1-0.5c0.8-0.5,1.6-1.2,2.4-2.1
			c0.8-0.9,1.3-1.7,1.5-2.5c0.2-0.9-0.1-1.5-0.9-1.8c-0.6-0.2-1.3-0.2-2.1,0.1c-0.5,0.2-1,0.4-1.4,0.8l-0.1-0.1
			c-0.2-2-0.4-3.2-0.5-3.7l-0.2-0.8C48.2,28.1,48.2,27.9,48.1,27.7L48.1,27.7z M49.4,37.4L49,33.9c0.9-0.7,1.5-0.7,1.8-0.2
			c0.3,0.5,0.2,1.1-0.1,1.9C50.4,36.4,50,37,49.4,37.4L49.4,37.4z"/>
		<path class="st0" d="M52.3,39c-1.2,1.5-2.4,2.7-3.8,3.7c-1.8,1.2-3.9,2.2-6.3,2.9c-3.8,1-7.2,1-10.2,0l-0.1,0
			c-0.1,0-0.1,0.1,0,0.2c0.3,3.8,3,6.4,8.3,7.9c1.9,0.5,3.8,0.6,5.6,0.4c1.9-0.3,3.5-1,4.9-2.1c1.4-1.2,2.4-2.7,2.9-4.7
			c0.5-2.1,0.5-4.6-0.2-7.4l-0.1-0.3c0-0.1-0.1-0.1-0.1-0.1c-0.2,0-0.2,0.1-0.2,0.3c0.2,0.9,0.3,1.8,0.4,2.8c0,1.2-0.1,2.4-0.3,3.5
			c-0.6,2.9-2.2,4.8-4.7,5.8c-2.4,1-4.9,1.1-7.4,0.4c-1.4-0.4-2.6-1-3.7-1.8c-0.9-0.6-1.6-1.2-2-1.9c-0.3-0.4-0.4-0.7-0.5-1l0,0
			c0.9,0.1,2,0.1,3.2,0c2.3-0.2,4.4-0.6,6.3-1.4c2.1-0.9,4.1-2.1,5.8-3.7c1.4-1.4,2.3-2.6,2.8-3.6c0.1-0.2,0.1-0.3,0-0.3
			c-0.1,0-0.2,0-0.2,0.1L52.3,39L52.3,39z"/>
		<path class="st0" d="M17,38.6c0.7,0.1,1.8-0.1,3.1-0.5l2.6-0.7l0.6,4.1c0.1,0.7,0.3,1,0.4,1.1l0.3,0.2l0.8-0.1
			c1.1-0.1,1.6-0.3,1.6-0.6l0-0.3l-0.8-5.2l2.9-0.7l0.6,3.9l0.3,1.3c0.2,0.5,0.4,0.7,0.8,0.6c0.8-0.1,1.3-0.2,1.6-0.4
			c0.1-0.1,0.1-0.2,0.1-0.3l-0.1-0.3c-0.5-1.4-0.8-3.1-1.1-5.2l3.3-0.5c-1.5,1.6-2.1,3-1.6,4.1c0.2,0.4,0.5,0.8,0.8,0.9
			c0.4,0.2,0.8,0.2,1.2,0.1c1-0.2,1.9-0.8,2.7-1.9c0.5,1.3,1.4,1.8,2.9,1.3c0.1,0,0.1,0,0.1-0.1c0-0.1,0-0.1-0.1-0.2
			c-0.5-0.2-0.8-0.8-0.8-1.6c0-0.5,0-1.2,0.2-2.1l0.2-1.2c0-0.4-0.2-0.5-0.6-0.4c-0.3,0.1-0.6,0.2-0.9,0.4c-0.3,0.2-0.5,0.3-0.6,0.4
			c-0.1,0.1-0.2,0.3-0.3,0.6c-0.4,1.5-1.1,2.6-1.9,3.4c-0.6,0.5-0.9,0.6-1,0.1c0-0.4,0.1-0.8,0.3-1.4c0.5-1.2,1.3-2.2,2.5-3.1
			c0.4-0.3,0.7-0.5,1.1-0.6c0.1,0,0.1-0.1,0.1-0.2c0-0.1-0.1-0.2-0.2-0.2l-1,0c-1.6,0.1-3.8,0.4-6.5,0.9l-0.1-2.2
			c0-1.7,0-2.9,0.1-3.6c0-0.2,0-0.4-0.2-0.5c-0.1-0.1-0.4-0.2-0.7-0.1c-0.7,0.1-1.4,0.3-1.9,0.6c-0.1,0.1-0.2,0.1-0.1,0.2l0.1,0.1
			l0.1,0.2c0.1,0.1,0.2,0.6,0.2,1.3l0.4,4.5l-2.9,0.8c-0.2-1.3-0.3-2.5-0.4-3.6l-0.2-2.5c0-0.6-0.2-0.8-0.5-0.8
			c-0.3,0-0.8,0.1-1.4,0.3c-0.7,0.3-1.3,0.6-1.8,1c-0.1,0.1-0.2,0.2-0.1,0.3l0.1,0.1l0.1,0c0.2,0.1,0.4,0.2,0.5,0.6
			c0.3,1.5,0.6,2.8,0.7,4.1l-0.1,0c-2.5,0.7-4.3,1.3-5.5,2.1c0,0-0.7,0.4-0.6,1C16.2,38.7,17,38.6,17,38.6L17,38.6z M22.5,36.3
			c-1.9,0.5-3,0.8-3.6,0.8c-0.4,0.1-0.6,0.1-0.6-0.1c0-0.1,0.2-0.2,0.5-0.4c1-0.5,2.2-1,3.6-1.3l0,0L22.5,36.3L22.5,36.3z"/>
		<path class="st0" d="M45.9,32.8c-0.6,0.1-1.1,0.2-1.5,0.4c-1.4,0.6-2.1,1.1-2.2,1.8c0,0.2,0,0.4,0,0.6c0.1,0.2,0.3,0.4,0.5,0.5
			c0.3,0.1,1.1,0.3,2.4,0.6c0.8,0.2,1.2,0.5,1.3,0.9c0.4,0.9,0,2-1.2,3.2c-0.8,0.9-1.4,1.5-2.1,1.8c-0.5,0.3-1,0.5-1.7,0.7
			c-0.8,0.2-1.4-0.2-2.1-1.1l-0.2-0.3C39,41.7,39,41.5,39,41.5c0-0.1,0.1-0.1,0.2-0.1l0.2,0c0.1,0.1,0.1,0.1,0.3,0.1
			c0.6,0.2,1.2,0.2,1.8-0.2c0.6-0.4,1.1-0.9,1.6-1.4l0.6-0.8l0.3-0.5c0.1-0.4,0.1-0.6,0-0.8c-0.2-0.3-0.7-0.5-1.4-0.6l0.1,0
			c-0.4-0.1-0.9-0.2-1.5-0.3c-0.5-0.1-0.7-0.3-0.9-0.6c-0.4-1.1,0.1-2.2,1.5-3.3c1-0.9,2-1.4,2.8-1.6c0.8-0.2,1.4,0.2,1.5,1.1V32.8
			L45.9,32.8L45.9,32.8z"/>
	</g>
</g>
</svg>
