<?xml version="1.0" encoding="utf-8"?>
<!-- Generator: Adobe Illustrator 25.2.0, SVG Export Plug-In . SVG Version: 6.00 Build 0)  -->
<svg version="1.1" id="Livello_1" xmlns="http://www.w3.org/2000/svg" xmlns:xlink="http://www.w3.org/1999/xlink" x="0px" y="0px"
	 viewBox="0 0 54.6 80" style="enable-background:new 0 0 54.6 80;" xml:space="preserve">
<style type="text/css">
	.st0{fill-rule:evenodd;clip-rule:evenodd;}
</style>
<desc>Created with Sketch.</desc>
<path class="st0" d="M41.4,65.3c-0.2,0-0.5,0-0.9-0.1c-2.3-0.3-5.4-0.5-7.9-0.7c-0.8,0-1.5-0.1-1.5-0.1c0,0-2.4-6.7-6.9-19.2l-0.7-2
	l0,0.1l0,0l0,5.9l0,4.5c0,10.2,0,10.8-0.1,10.8c-0.4,0-3.8,0.2-4.9,0.3c-0.7,0.1-2.2,0.2-3.3,0.3c-1.1,0.1-2,0.2-2,0.2
	c0,0,0-11.5,0-25.4V14.5l0,0l5.1,0h5.1l0.1,0.2c0,0.1,0.9,2.4,1.9,5.2c3.7,10.3,4.3,12,5.2,14.5l0.7,2.1l0-22h10.3l0,25.4
	C41.5,53.2,41.5,64.2,41.4,65.3l0.1,0C41.5,65.3,41.5,65.4,41.4,65.3C41.4,65.3,41.4,65.3,41.4,65.3C41.4,65.3,41.4,65.3,41.4,65.3z
	"/>
</svg>
