<svg version="1.1" id="Livello_1" xmlns="http://www.w3.org/2000/svg" xmlns:xlink="http://www.w3.org/1999/xlink" x="0" y="0" viewBox="0 0 980.6 548" xml:space="preserve"><style>.st0{fill:#fff}.st2{display:inline}.st4{fill:#2c2d43}.st5{fill:#e86992}.st6{fill:#f7e734}.st7{fill:#f7f7f9}.st8{fill:#41e3b9}.st10{fill:#6b4b3e}.st11{fill:#c49f86}.st12{fill:#ffd6b0}.st13{fill:#f9f4fb}.st14{fill:#bda7e5}.st16{fill:#0e1821}.st17{fill:#344966}.st18{fill:#b4cdec}.st19{fill:#eff4ef}.st20{fill:#c0cc94}.st22{fill:#ff4a9e}.st23{fill:#d165b5}.st24{fill:#a580ce}.st25{fill:#779ce7}.st26{fill:#4bb6ff}.st28{fill:#485695}.st29{fill:#e7e7e7}.st30{fill:#f9c784}.st31{fill:#fc7b1d}.st32{fill:#f24c00}.st34{fill:#e27396}.st35{fill:#eb9ab4}.st36{fill:#efd0e4}.st37{fill:#eaf4d9}.st38{fill:#b0dfe2}.st40{fill:#17697b}.st41{fill:#4aa0b6}.st42{fill:#82c1cb}.st43{fill:#ece7e4}.st44{fill:#ffa62b}.st46{fill:#5ba8e6}.st47{fill:#80c8f9}.st48{fill:#f9f9f9}.st49{fill:#ffe55d}.st50{fill:#ff6392}.st52{fill:#d63f44}.st53{fill:#e9fffa}.st54{fill:#9ed9da}.st55{fill:#477699}.st56{fill:#1c3353}.st58{fill:#555863}.st59{fill:#00e8fc}.st60{fill:#f96e47}.st61{fill:#fac848}.st62{fill:#ffe3e2}.st64{fill:#10263a}.st65{fill:#09bcc0}.st66{fill:#c5d9d2}.st67{fill:#f5edeb}.st68{fill:#f3d1af}.st70{fill:#091e05}.st71{fill:#00512d}.st72{fill:#d87cab}.st73{fill:#f9b9c3}.st74{fill:#feda22}.st76{fill:#47403a}.st77{fill:#8a817c}.st78{fill:#bcb7b1}.st79{fill:#f4f3ef}.st80{fill:#e0afa1}.st82{fill:#21587b}.st83{fill:#37a3a5}.st84{fill:#57cc98}.st85{fill:#80eb9a}.st86{fill:#c6facc}.st88{fill:#f49098}.st89{fill:#dfb2f3}.st90{fill:#f5e960}.st91{fill:#f2f4ff}.st92{fill:#55d6c2}.st94{fill:#cdc393}.st95{fill:#e8e6da}.st96{fill:#9fb7e5}.st97{fill:#648de5}.st98{fill:#304e89}.st100{fill:#0a0904}.st101{fill:#fe0000}.st102{fill:#ff8203}.st103{fill:#ffc102}.st104{fill:#feebad}.st106{fill:#fbb001}.st107{fill:#ffd539}.st108{fill:#ffa3ae}.st109{fill:#017bbe}.st110{fill:#00ae55}.st112{fill:#7e6c6c}.st113{fill:#f97476}.st114{fill:#ffa9a2}.st115{fill:#b8e6ff}.st116{fill:#6390ff}.st118{fill:#07004d}.st119{fill:#2f81bd}.st120{fill:#41e2b8}.st121{fill:#f4debf}.st122{fill:#ea8b90}.st124{fill:#1d2f6f}.st125{fill:#7f91fe}.st126{fill:#fac748}.st127{fill:#f9e9ec}.st128{fill:#f98ead}.st130{fill:#00926e}.st131{fill:#ffede6}.st132{fill:#ffcf00}.st133{fill:#ef6222}.st134{fill:#fc003e}.st136{fill:#642ca9}.st137{fill:#ff34ac}.st138{fill:#ff74d5}.st139{fill:#ffb9df}.st140{fill:#ffdfe0}.st142{fill:#2c6f4b}.st143{fill:#4c9768}.st144{fill:#fefee4}.st145{fill:#fecab9}.st146{fill:#dc8945}.st148{fill:#030788}.st149{fill:#2f4392}.st150{fill:#647aa3}.st151{fill:#95b2b0}.st152{fill:#c6edbe}.st154{fill:#bef5dd}.st155{fill:#cce5d8}.st156{fill:#ded7d2}.st157{fill:#eec6ca}.st158{fill:#ffb7c4}.st160{fill:#655b7c}.st161{fill:#a994bd}.st162{fill:#afc1d7}.st163{fill:#cef9f2}.st164{fill:#d8ca96}.st166{fill:#656e79}.st167{fill:#8d98a8}.st168{fill:#dcccbc}.st169{fill:#ebb464}.st170{fill:#a77647}.st172{fill:#f18180}.st173{fill:#f4978f}.st174{fill:#faad9d}.st175{fill:#fcc5ab}.st176{fill:#fedabb}.st178{fill:#4059ad}.st179{fill:#6c9ac4}.st180{fill:#97d9c4}.st181{fill:#f0f2f1}.st182{fill:#f9b743}.st184{fill:#9b5de6}.st185{fill:#f15bb4}.st186{fill:#fde442}.st187{fill:#01bbfa}.st188{fill:#01f5d4}.st190{fill:#ff7577}.st191{fill:#e69597}.st192{fill:#cfb5b8}.st193{fill:#b6d5d7}.st194{fill:#9cf7f6}.st196{fill:#ae4d9a}.st197{fill:#d76ba0}.st198{fill:#e5a9a9}.st199{fill:#f4e4b9}.st200{fill:#9cf7e5}.st202{fill:#9481ff}.st203{fill:#b8b8ff}.st204{fill:#f8f7ff}.st205{fill:#ffeede}.st206{fill:#ffd8be}.st208{fill:#231f20}.st209{fill:#bb4430}.st210{fill:#7ebdc2}.st211{fill:#f3dfa2}.st212{fill:#efe6dd}.st214{fill:#ff6aec}.st215{fill:#ff86c9}.st216{fill:#ffa3a4}.st217{fill:#ffbf82}.st218{fill:#ffdc5e}.st220{fill:#a8d5e2}.st221{fill:#f9a720}.st222{fill:#ffd449}.st223{fill:#568c30}.st224{fill:#0f4a12}.st226{fill:#070707}.st227{fill:#3772ff}.st228{fill:#df2935}.st229{fill:#feca40}.st230{fill:#e6e8e5}.st232{fill:#f3f330}.st233{fill:#c2f263}.st234{fill:#91f291}.st235{fill:#61f2c1}.st236{fill:#30f2f2}.st238{fill:#ef6551}.st239{fill:#f38375}.st240{fill:#f8a399}.st241{fill:#fcc3bc}.st242{fill:#ffe3e0}.st244{fill:#7d690a}.st245{fill:#babd8e}.st246{fill:#ffdac8}.st247{fill:#fa9500}.st248{fill:#ea6426}.st250{fill:#072ac9}.st251{fill:#1e97fe}.st252{fill:#a1d6f8}.st253{fill:#fcf400}.st254{fill:#ffc404}.st256{fill:#816aec}.st257{fill:#cb77ff}.st258{fill:#ffb8ff}.st259{fill:#3bf3fc}.st260{fill:#c9ff89}.st262{fill:#042a9f}.st263{fill:#5c4ae5}.st264{fill:#947cd4}.st265{fill:#f0a7a0}.st266{fill:#f26bac}.st268{fill:#ffbf86}.st269{fill:#ffe152}.st270{fill:#ffeacf}.st271{fill:#ffb5c3}.st272{fill:#3875ff}.st319{enable-background:new}.st320{fill:#000}.st321{fill:none;stroke:#000;stroke-miterlimit:10}.st322{fill:#e1e1e5}.st323{fill:#c9c8cc}.st330{fill:#36cc00}</style><image y="10" width="2617" height="3344" id="homepage_hero-palettes" xlink:href="./homepage_hero_palettes.png" transform="translate(308.152 30.224) scale(.2453)" overflow="visible"/><path class="st0" d="M0 0v759h980.6V0H0zm956.6 461.5h-655v-450h655v450z"/><g id="homepage_hero-generate-btn"><g id="homepage_hero-generate-btn-text" class="st319"><path class="st0" d="M48.7 170.9h123.4v25.4H48.7z"/><path class="st320" d="M55 182.1c.1-3.9.4-6.6 1-6.6h.1c.1.1.7.2.8.8.4 1.8 1.1 4.9 2.5 7 .2-.1 1.1-1.7 1.6-2.6l.1-.2c.9-1.6 1.5-2.8 2.1-4.3.1-.3.3-.4.7-.4.3 0 .5.1.8.4-.2 5.3-.1 10.7-.2 16v1.2c-.1.3-.4.6-.8.6-.2 0-.4-.2-.6-.3v-1.4c.1-4.3-.1-8.7.1-13-.6 1-1.2 2.1-1.7 3.1-.2.4-1.2 2.3-1.4 2.8-.1.3-.8 1.1-1.2.2-2.4-5.4-2.5-5.4-2.5-5.4-.5 4.3-.6 8.8-.6 13.2 0 .3-.3.5-.5.5-.1 0-.6-.2-.7-.3l.4-11.3zM68.9 189.1l-.1.1-.4 2.7c0 .4 0 1.4-.7 1.4-.3 0-.5-.6-.5-.9l2.5-17.4c.1-.5.3-1.1.9-1.1.3 0 .6.1.7.4l.2.5c1.4 5.5 2 11.1 2.7 16.8l.1 1.6c-.2.5-.3.6-.7.6h-.1c-.1 0-.4 0-.4-.2l-.6-4.6-3.6.1zm.3-1.5l3 .1-1.6-11.2-1.4 11.1zM76.6 175.4c0-.4.3-.7.7-.7.5 0 .7.3.7.9l.2 8c1.4-2.9 2.6-5.4 3.2-7.4.2-.7.2-1.6 1.1-1.6.3 0 1 .1.6 1.2l-3.9 9 4.5 8.3c.2.4 0 1.1-.6 1.1-.3 0-.4 0-.6-.3-1.3-2.4-2.6-5.6-4.3-8.1v.2c0 1.1.3 5 .3 8.1-.3.6-1.3.9-1.3 0l-.6-18.7zM85.8 176.8c0-.4.4-.8.8-.8h3.8c.1 0 .6.4.6.5v.1c0 .5-.6.7-1 .7h-2.9l.1 8 2.6-.4h.2c1.1 0 .7 1.1-.3 1.2l-2.4.4-.1 6.3h1.2c1.6 0 2.8-.6 2.9.6 0 .8-5.3.7-5.3.3l-.2-16.9zM102.8 189.1l-.1.1-.4 2.7c0 .4 0 1.4-.7 1.4-.3 0-.5-.6-.5-.9l2.5-17.4c.1-.5.3-1.1.9-1.1.3 0 .6.1.7.4l.2.5c1.4 5.5 2 11.1 2.7 16.8l.1 1.6c-.2.5-.3.6-.7.6h-.1c-.1 0-.4 0-.4-.2l-.6-4.6-3.6.1zm.3-1.5l3 .1-1.6-11.2-1.4 11.1zM117.7 188.4c0-1.9.1-10.9.2-12.8.1-.3.7-.3 1-.3 2.5 0 4.3 2.2 4.3 4.6 0 2.6-1.8 5.5-4.2 6.6 0 .4-.1 2.3-.1 2.6v5.3c-.1.2-.5.3-.7.3s-.3 0-.5-.1v-6.2zm1.3-3.5c.2 0 .4 0 .5-.2 1.4-1.3 2.2-2.7 2.2-4.7 0-1.2-.9-3.5-2.5-3.5l-.2 8.4zM125.7 189.1l-.1.1-.4 2.7c0 .4 0 1.4-.7 1.4-.3 0-.5-.6-.5-.9l2.5-17.4c.1-.5.3-1.1.9-1.1.3 0 .6.1.7.4l.2.5c1.4 5.5 2 11.1 2.7 16.8l.1 1.6c-.2.5-.3.6-.7.6h-.1c-.1 0-.4 0-.4-.2l-.6-4.6-3.6.1zm.4-1.5l3 .1-1.6-11.2-1.4 11.1zM133.4 194.1s-.3-12.4-.3-14c0-.5-.3-4.1-.3-4.6v-.2c0-.2 0-.3.2-.4h.5c.4 0 .6 0 .8.5.2.9.1 1.5.1 2.4.1 4.9.2 9.9.5 14.8h.2c1 0 2-.3 3-.3.4 0 .8.1.8.6 0 .3-.1.5-.5.5l-5 .7zM140.2 176.8c0-.4.4-.8.8-.8h3.8c.1 0 .6.4.6.5v.1c0 .5-.6.7-1 .7h-2.9l.1 8 2.6-.4h.1c1.1 0 .7 1.1-.3 1.2l-2.4.4-.1 6.3h1.2c1.6 0 2.8-.6 2.9.6 0 .8-5.3.7-5.3.3l-.1-16.9zM149.7 176.5c-1.5.1-2.2.1-2.2-.3 0-.8 0-1.1 2.5-1h2c.5 0 1.4.1 1.4.8 0 .2-.3.5-.5.5h-2l.5 15.2c0 .2-.5.3-.6.3s-.6-.1-.6-.3l-.5-15.2zM157.1 176.5c-1.5.1-2.2.1-2.2-.3 0-.8 0-1.1 2.5-1h2c.5 0 1.4.1 1.4.8 0 .2-.3.5-.5.5h-2l.5 15.2c0 .2-.5.3-.6.3s-.6-.1-.6-.3l-.5-15.2zM162 176.8c0-.4.4-.8.8-.8h3.8c.1 0 .6.4.6.5v.1c0 .5-.6.7-1 .7h-2.9l.1 8 2.6-.4h.1c1.1 0 .7 1.1-.3 1.2l-2.4.4-.1 6.3h1.2c1.6 0 2.8-.6 2.9.6 0 .8-5.3.7-5.3.3l-.1-16.9z"/></g><g id="homepage_hero-generate-btn-arrow"><path class="st321" d="M186.5 188.1s16.6 5.3 17.2 24.7"/><path class="st320" d="M199.4 209.8l.6-.8 3.6 3.5 3.2-3.8.7.6-3.8 4.6z"/></g></g><g id="homepage_hero-explore"><path class="st322" d="M570.2 464.6h118.4v73.9H570.2z"/><path class="st320" d="M958 6H299.6c-8.4 0-15.1 6.8-15.1 15.1v431.7c0 8.4 6.8 15.1 15.1 15.1H958c8.4 0 15.1-6.8 15.1-15.1V21.1c0-8.3-6.8-15.1-15.1-15.1zm5 14.3v433.5c0 2.3-1.9 4.2-4.2 4.2h-660c-2.3 0-4.2-1.9-4.2-4.2V20.3c0-2.3 1.9-4.2 4.2-4.2h660.1c2.2 0 4.1 1.9 4.1 4.2z"/><path class="st323" d="M532.6 532h193c0 5.5-4.5 10-10 10h-173c-5.5 0-10-4.5-10-10z"/><path d="M963 20.3v433.5c0 2.3-1.9 4.2-4.2 4.2h-660c-2.3 0-4.2-1.9-4.2-4.2V20.3c0-2.3 1.9-4.2 4.2-4.2h660.1c2.2 0 4.1 1.9 4.1 4.2z" fill="transparent"/></g><g id="homepage_hero-explore-btn"><g id="homepage_hero-explore-btn-text" class="st319"><path class="st0" d="M167.4 62.9h62.9v25.4h-62.9z"/><path class="st320" d="M172.4 81.5v-4.8c0-3.4-.3-5.6-.3-9.1v-1.2c3.8-.3 4.3 0 4.3.5 0 .2-.1.5-.3.6h-2.6c-.2 0-.2.1-.2.2 0 2.5.2 4.4.4 7 .4.1 2.4 0 2.8 0 .8 0 1.4 1.4.3 1.4h-3v5.6c.6.1 3.6-.5 3.6.6 0 .3-.1.6-.5.6h-.1c-.9.1-4.3.3-4.3-.4l-.1-1zM181 84.6h-.5c-.3 0-.8 0-.8-.4v-.1c0-.1.3-.7.3-.8.4-1.2 2.3-6.9 2.6-8.1v-.3c0-.5-.1-.7-.3-1.4-.2-.6-1.2-3.3-1.4-3.9-.1-.3-.8-2-.9-2.4-.1-.3-.3-.6-.3-.9 0-.5.1-.5.6-.5.9 0 1.2 1.1 1.5 1.8.2.7 1.5 4.1 1.7 4.8l1.4-4.6c.1-.6.4-2.6 1.4-2.3.5.1.5.8.5 1.2l-1.4 4.1c-.3.9-.9 3.2-.9 3.3v.9s.7 2.4 1.1 3.3c.7 2 1.6 4.1 2.2 6.1-.2.4-.3.5-.7.5-.2 0-.4 0-.6-.2l-.1-.3c-.1-.2-.7-2-.8-2.2-.5-1.4-1-2.9-1.6-4.4-.1-.2-.3-.8-.3-.8l-2.7 7.6zM189.5 84.4c0-2.8.1-15.7.2-18.6.2-.3.8-.5 1.1-.5 3.1 0 4.6 2.6 4.6 5.5 0 3.4-1.4 5.4-4.3 7l-.2 1.5c0 .8-.1 4.5-.2 5.2-.1.4-.2.5-.6.5-.2.1-.6 0-.6-.6zm1.5-9.2v1c.3 0 .8-.3.8-.4 1.6-1.3 2-2.8 2-4.7 0-1.5-.2-4.3-2.3-4.3-.1 0-.3 0-.3.2l-.2 8.2zM198.3 65.5c.4 0 .7.5.8.8.2 5.4.2 10.9.6 16.4.7-.2 1.9-.5 2.9-.5.4 0 .8.1.8.6 0 .3-.1.6-.5.7-.8.3-1.9.2-2.7.5-.3.1-.6.3-1 .3-.3 0-.7-.3-.7-.6-.3-2.9-.2-6-.3-8.8l-.3-5.9v-3c.1-.4.2-.5.4-.5zM207 66.2c5.3 0 6 17.1.8 17.5h-.3c-2 0-3.1-1.2-3.7-3.4-.3-1.4-2.8-14.1 3.2-14.1zm-2 13c.2.8 1 3.1 2.2 3.2h.3c1.6-.1 2.1-3 2.4-4.1.4-1.9.7-10.8-2.7-10.8h-.2c-3.7.3-2.5 10-2 11.7zM213 74.4c0-.7-.1-5.1-.2-6.2 0-.2-.1-2.4-.2-2.6v-.1c0-.6.6-.7 1.1-.7 3.3 0 4.5 2.4 4.5 5.1 0 2.2-.8 3.6-2.4 4.7 2.8 1.2 3.4 5.1 3.4 7.8 0 .4-.3.6-.7.6-.3 0-.4 0-.5-.4-.1-1.8-.6-6.9-3.4-6.9h-.2c-.3 2.7 0 5.4-.2 8.2-.3.4-1 .5-1.3 0 .2-1.4.2-8 .1-9.5zm1.4-.6c1.7-.3 2.6-2.2 2.6-3.7 0-1.3-.5-3.9-2.3-3.9-.1 0-.8 0-.8.2l.5 7.4zM221.7 81.5v-4.8c0-3.4-.3-5.6-.3-9.1v-1.2c3.8-.3 4.3 0 4.3.5 0 .2-.1.5-.3.6h-2.6c-.2 0-.2.1-.2.2 0 2.5.2 4.4.4 7 .4.1 2.4 0 2.8 0 .8 0 1.4 1.4.3 1.4h-3v5.6c.6.1 3.6-.5 3.6.6 0 .3-.1.6-.5.6h-.2c-.9.1-4.3.3-4.3-.4v-1z"/></g><g id="homepage_hero-explore-btn-arrow"><path class="st321" d="M220.3 102.2s5.3 16.6 24.7 17.2"/><path class="st320" d="M241.5 123.3l-.6-.8 3.8-3.1-3.5-3.6.8-.6 4.1 4.3z"/></g></g><g id="homepage_hero-generate"><path class="st320" d="M448.5 535.5V267c.1-7.6-6.1-13.9-13.8-14H57.3c-7.7.1-13.9 6.3-13.9 13.9v268.6h405.1z"/><g id="homepage_hero-generator-laptop"><path d="M322.5 262.9h112c2.2 0 4 1.8 4 4v255h-116v-259z" fill="#a8d5e2"/><path fill="#f9a620" d="M247.5 262.9h115v259h-115z"/><path fill="#ffd449" d="M169.5 262.9h115v259h-115z"/><path fill="#548c2f" d="M92.5 262.9h116v259h-116z"/><path d="M57.5 262.9h74v259h-78v-255c0-2.2 1.8-4 4-4z" fill="#104911"/></g><path class="st323" d="M7.5 532h480c0 5.5-4.5 10-10 10h-460c-5.5 0-10-4.5-10-10z"/></g><path class="st330" d="M780.7 454.9v61.2h30.7v-61.2c0-9.3-6.9-16.8-15.3-16.8-8.5.1-15.4 7.6-15.4 16.8z"/><path class="st330" d="M820.1 492.9h-21.7a6.7 6.7 0 010-13.4h21.7c.8 0 1.4-.6 1.4-1.4V470a6.7 6.7 0 0113.4 0v8.1c0 8.2-6.7 14.8-14.8 14.8z"/><path class="st330" d="M791.5 502.9h-19.8c-7.6 0-13.7-6.5-13.7-14.4v-3.2c0-3.5 2.8-6.4 6.4-6.4 3.5 0 6.4 2.8 6.4 6.4v3.2c0 1 .6 1.7 1 1.7h19.8c3.5 0 6.4 2.8 6.4 6.4s-2.9 6.3-6.5 6.3z"/><path class="st322" d="M765.1 513.5l2.4 18.3.1.8c0 .2.1.5.1.7h56.4c0-.2.1-.5.1-.7l.1-.8 2.4-18.3h-61.6z"/><path class="st323" d="M767.7 533.3c1 5.1 5.4 8.8 10.6 8.8h35.1c5.2 0 9.6-3.7 10.6-8.8h-56.3z"/></svg>